<svg width="146" height="96" viewBox="0 0 146 96" fill="none" xmlns="http://www.w3.org/2000/svg">
<rect x="79.9656" width="5.21559" height="6.23377" rx="1" fill="#19294B"/>
<rect x="79.9656" y="14.9611" width="5.21559" height="6.23377" rx="1" fill="#19294B"/>
<rect x="79.9656" y="29.9221" width="5.21559" height="6.23377" rx="1" fill="#19294B"/>
<rect x="79.9656" y="44.8832" width="5.21559" height="6.23377" rx="1" fill="#19294B"/>
<rect x="79.9656" y="59.8441" width="5.21559" height="6.23377" rx="1" fill="#19294B"/>
<rect x="79.9656" y="74.8052" width="5.21559" height="6.23377" rx="1" fill="#19294B"/>
<rect x="79.9656" y="89.7662" width="5.21559" height="6.23377" rx="1" fill="#19294B"/>
<rect x="59.9741" width="5.21559" height="6.23377" rx="1" fill="#19294B"/>
<rect x="59.9741" y="14.9611" width="5.21559" height="6.23377" rx="1" fill="#19294B"/>
<rect x="59.9741" y="29.9221" width="5.21559" height="6.23377" rx="1" fill="#19294B"/>
<rect x="59.9741" y="44.8832" width="5.21559" height="6.23377" rx="1" fill="#19294B"/>
<rect x="59.9741" y="59.8441" width="5.21559" height="6.23377" rx="1" fill="#19294B"/>
<rect x="59.9741" y="74.8052" width="5.21559" height="6.23377" rx="1" fill="#19294B"/>
<rect x="59.9741" y="89.7662" width="5.21559" height="6.23377" rx="1" fill="#19294B"/>
<rect x="39.9827" width="5.21559" height="6.23377" rx="1" fill="#19294B"/>
<rect x="39.9827" y="14.9611" width="5.21559" height="6.23377" rx="1" fill="#19294B"/>
<rect x="39.9827" y="29.9221" width="5.21559" height="6.23377" rx="1" fill="#19294B"/>
<rect x="39.9827" y="44.8832" width="5.21559" height="6.23377" rx="1" fill="#19294B"/>
<rect x="39.9827" y="59.8441" width="5.21559" height="6.23377" rx="1" fill="#19294B"/>
<rect x="39.9827" y="74.8052" width="5.21559" height="6.23377" rx="1" fill="#19294B"/>
<rect x="39.9827" y="89.7662" width="5.21559" height="6.23377" rx="1" fill="#19294B"/>
<rect x="19.9915" width="5.21559" height="6.23377" rx="1" fill="#19294B"/>
<rect x="19.9915" y="14.9611" width="5.21559" height="6.23377" rx="1" fill="#19294B"/>
<rect x="19.9915" y="29.9221" width="5.21559" height="6.23377" rx="1" fill="#19294B"/>
<rect x="19.9915" y="44.8832" width="5.21559" height="6.23377" rx="1" fill="#19294B"/>
<rect x="19.9915" y="59.8441" width="5.21559" height="6.23377" rx="1" fill="#19294B"/>
<rect x="19.9915" y="74.8052" width="5.21559" height="6.23377" rx="1" fill="#19294B"/>
<rect x="19.9915" y="89.7662" width="5.21559" height="6.23377" rx="1" fill="#19294B"/>
<rect width="5.21559" height="6.23377" rx="1" fill="#19294B"/>
<rect y="14.9611" width="5.21559" height="6.23377" rx="1" fill="#19294B"/>
<rect y="29.9221" width="5.21559" height="6.23377" rx="1" fill="#19294B"/>
<rect y="44.8832" width="5.21559" height="6.23377" rx="1" fill="#19294B"/>
<rect y="59.8441" width="5.21559" height="6.23377" rx="1" fill="#19294B"/>
<rect y="74.8052" width="5.21559" height="6.23377" rx="1" fill="#19294B"/>
<rect y="89.7662" width="5.21559" height="6.23377" rx="1" fill="#19294B"/>
<rect x="99.957" width="5.21559" height="6.23377" rx="1" fill="#19294B"/>
<rect x="99.957" y="14.9611" width="5.21559" height="6.23377" rx="1" fill="#19294B"/>
<rect x="99.957" y="29.9221" width="5.21559" height="6.23377" rx="1" fill="#19294B"/>
<rect x="99.957" y="44.8832" width="5.21559" height="6.23377" rx="1" fill="#19294B"/>
<rect x="99.957" y="59.8441" width="5.21559" height="6.23377" rx="1" fill="#19294B"/>
<rect x="99.957" y="74.8052" width="5.21559" height="6.23377" rx="1" fill="#19294B"/>
<rect x="99.957" y="89.7662" width="5.21559" height="6.23377" rx="1" fill="#19294B"/>
<rect x="119.948" width="5.21559" height="6.23377" rx="1" fill="#19294B"/>
<rect x="119.948" y="14.9611" width="5.21559" height="6.23377" rx="1" fill="#19294B"/>
<rect x="119.948" y="29.9221" width="5.21559" height="6.23377" rx="1" fill="#19294B"/>
<rect x="119.948" y="44.8832" width="5.21559" height="6.23377" rx="1" fill="#19294B"/>
<rect x="119.948" y="59.8441" width="5.21559" height="6.23377" rx="1" fill="#19294B"/>
<rect x="119.948" y="74.8052" width="5.21559" height="6.23377" rx="1" fill="#19294B"/>
<rect x="119.948" y="89.7662" width="5.21559" height="6.23377" rx="1" fill="#19294B"/>
<rect x="139.94" width="5.21559" height="6.23377" rx="1" fill="#19294B"/>
<rect x="139.94" y="14.9611" width="5.21559" height="6.23377" rx="1" fill="#19294B"/>
<rect x="139.94" y="29.9221" width="5.21559" height="6.23377" rx="1" fill="#19294B"/>
<rect x="139.94" y="44.8832" width="5.21559" height="6.23377" rx="1" fill="#19294B"/>
<rect x="139.94" y="59.8441" width="5.21559" height="6.23377" rx="1" fill="#19294B"/>
<rect x="139.94" y="74.8052" width="5.21559" height="6.23377" rx="1" fill="#19294B"/>
<rect x="139.94" y="89.7662" width="5.21559" height="6.23377" rx="1" fill="#19294B"/>
</svg>
